{"scene":0,"asset":{"generator":"ImageToStl.com","version":"2.0"},"scenes":[{"name":"Scene","nodes":[0]}],"nodes":[{"name":"Node0","children":[1,2]},{"name":"Node1","mesh":0},{"name":"Node2","mesh":1}],"materials":[{"name":"ship","pbrMetallicRoughness":{"baseColorFactor":[0.8,0.8,0.8,1.0],"metallicFactor":1.0,"roughnessFactor":0.75},"emissiveFactor":[0.0,0.0,0.0],"doubleSided":true},{"name":"Material.004","pbrMetallicRoughness":{"baseColorFactor":[0.8,0.8,0.8,1.0],"metallicFactor":1.0,"roughnessFactor":0.75},"emissiveFactor":[0.0,0.0,0.0],"doubleSided":true}],"meshes":[{"name":"Mesh0","primitives":[{"indices":3,"material":0,"attributes":{"POSITION":0,"NORMAL":1,"TEXCOORD_0":2}}]},{"name":"Mesh0","primitives":[{"indices":7,"material":1,"attributes":{"POSITION":4,"NORMAL":5,"TEXCOORD_0":6}}]}],"accessors":[{"bufferView":0,"componentType":5126,"count":11213,"type":"VEC3","min":[-0.9731526,-3.1534212,-1.3439348],"max":[0.9731526,2.9101427,2.845192]},{"bufferView":1,"componentType":5126,"count":11213,"type":"VEC3"},{"bufferView":2,"componentType":5126,"count":11213,"type":"VEC2"},{"bufferView":3,"componentType":5123,"count":132588,"type":"SCALAR"},{"bufferView":4,"componentType":5126,"count":1148,"type":"VEC3","min":[-0.55913615,-0.10156294,0.06914127],"max":[0.55913615,2.926094,1.530675]},{"bufferView":5,"componentType":5126,"count":1148,"type":"VEC3"},{"bufferView":6,"componentType":5126,"count":1148,"type":"VEC2"},{"bufferView":7,"componentType":5123,"count":13392,"type":"SCALAR"}],"bufferViews":[{"target":34962,"buffer":0,"byteLength":134556,"byteOffset":0},{"target":34962,"buffer":0,"byteLength":134556,"byteOffset":134556},{"target":34962,"buffer":0,"byteLength":89704,"byteOffset":269112},{"target":34963,"buffer":0,"byteLength":265176,"byteOffset":358816},{"target":34962,"buffer":0,"byteLength":13776,"byteOffset":623992},{"target":34962,"buffer":0,"byteLength":13776,"byteOffset":637768},{"target":34962,"buffer":0,"byteLength":9184,"byteOffset":651544},{"target":34963,"buffer":0,"byteLength":26784,"byteOffset":660728}],"buffers":[{"byteLength":687512,"uri":"data:application/octet-stream;base64,"}]}